<svg width="61" height="39" viewBox="0 0 61 39" fill="none" xmlns="http://www.w3.org/2000/svg">
<path id="Vector" d="M15.5503 8.40454V0.904541H23.0503V8.40454H15.5503ZM8.05029 15.9045V8.40454H15.5503V15.9045H8.05029ZM8.05029 23.4045H0.550293V15.9045H8.05029V23.4045ZM15.5503 30.9045V23.4045H8.05029V30.9045H15.5503ZM15.5503 30.9045H23.0503V38.4045H15.5503V30.9045ZM45.5503 8.40454V0.904541H38.0503V8.40454H45.5503ZM53.0503 15.9045V8.40454H45.5503V15.9045H53.0503ZM53.0503 23.4045V15.9045H60.5503V23.4045H53.0503ZM45.5503 30.9045V23.4045H53.0503V30.9045H45.5503ZM45.5503 30.9045V38.4045H38.0503V30.9045H45.5503Z" fill="#D3D829"/>
</svg>
