<svg width="251" height="58" viewBox="0 0 251 58" fill="none" xmlns="http://www.w3.org/2000/svg">
<g id="pdf button">
<path d="M36.6272 0.394592H214.373C234.325 0.394592 250.5 13.1874 250.5 28.968C250.5 44.7487 234.325 57.5415 214.373 57.5415H36.6272C16.6747 57.5415 0.5 44.7487 0.5 28.968C0.5 13.1874 16.6747 0.394592 36.6272 0.394592Z" fill="white"/>
<path d="M22.3136 42.028L26.5492 21.2113H29.097L28.6511 23.3753H28.7148C30.0737 21.6888 31.8465 20.8456 34.0333 20.8456C35.8167 20.8456 37.2286 21.445 38.269 22.6438C39.3093 23.8223 39.8295 25.397 39.8295 27.3679C39.8295 29.0341 39.5322 30.6088 38.9378 32.0921C38.3645 33.5753 37.4303 34.8351 36.1352 35.8714C34.8401 36.9076 33.3008 37.4258 31.5174 37.4258C29.1182 37.4258 27.4197 36.481 26.4218 34.5913H26.3582L24.8613 42.028H22.3136ZM27.1862 30.6291C27.1649 32.0514 27.5153 33.1995 28.2371 34.0732C28.959 34.9469 30.0206 35.3837 31.4218 35.3837C32.6957 35.3837 33.7892 34.9672 34.7021 34.1341C35.6151 33.2807 36.2626 32.2851 36.6448 31.1472C37.0269 29.9891 37.218 28.7801 37.218 27.5203C37.218 26.159 36.9102 25.0516 36.2945 24.1982C35.7 23.3448 34.7233 22.9181 33.3645 22.9181C31.4749 22.9181 29.9781 23.7004 28.8741 25.2649C27.77 26.8092 27.2074 28.5972 27.1862 30.6291Z" fill="black"/>
<path d="M50.8446 35.2618C49.507 36.7045 47.8935 37.4258 46.0039 37.4258C44.1143 37.4258 42.5962 36.8467 41.4497 35.6885C40.3032 34.5303 39.7406 32.915 39.7618 30.8425C39.783 29.2373 40.1015 27.693 40.7172 26.2098C41.3542 24.7265 42.352 23.4667 43.7109 22.4304C45.0697 21.3738 46.6408 20.8456 48.4242 20.8456C50.5686 20.8456 52.161 21.7701 53.2013 23.6191H53.265L54.9529 15.1766H57.5007L53.1058 36.9686H50.558L50.9083 35.2618H50.8446ZM42.3414 30.7205C42.3414 32.0819 42.6599 33.1995 43.2968 34.0732C43.955 34.9469 44.9741 35.3837 46.3542 35.3837C48.3075 35.3837 49.8043 34.571 50.8446 32.9455C51.9062 31.32 52.437 29.4201 52.437 27.246C52.437 25.9862 52.076 24.95 51.3542 24.1372C50.6323 23.3245 49.6238 22.9181 48.3287 22.9181C47.0548 22.9181 45.9402 23.3448 44.9847 24.1982C44.0506 25.0516 43.3712 26.0574 42.9465 27.2155C42.5431 28.3737 42.3414 29.542 42.3414 30.7205Z" fill="black"/>
<path d="M69.1535 18.6816V15.6338H70.7458V17.1577H72.3382V18.6816H69.1535ZM64.3764 24.7773V23.2533H62.7841V27.8251H61.1917V30.8729H59.5993V35.4447H58.007V38.4925H56.4146V41.5404H54.8223V43.0643H53.2299V41.5404H54.8223V36.9686H56.4146V32.3969H58.007V27.8251H59.5993V24.7773H58.007V23.2533H61.1917V20.2055H62.7841V17.1577H64.3764V15.6338H67.5611V17.1577H65.9688V18.6816H64.3764V23.2533H67.5611V24.7773H64.3764ZM53.2299 43.0643V44.5882H50.0452V43.0643H48.4528V40.0164H50.0452V43.0643H53.2299Z" fill="black"/>
<path d="M74.9372 36.9686L72.2939 21.2113H74.9691L76.434 31.2082L76.8162 34.5913H76.8799C77.4319 33.3722 77.9733 32.2445 78.5041 31.2082L83.7589 21.2113H86.4659L77.7716 36.9686H74.9372Z" fill="black"/>
<path d="M98.897 29.6843H86.6358C86.6146 29.8875 86.604 30.1821 86.604 30.5682C86.604 32.0108 86.9967 33.169 87.7823 34.0427C88.5679 34.9164 89.6931 35.3533 91.1581 35.3533C92.2409 35.3533 93.1963 35.0688 94.0244 34.4999C94.8524 33.9309 95.4469 33.1283 95.8078 32.0921H98.2919C97.6549 33.8395 96.6995 35.1602 95.4256 36.0543C94.1517 36.9483 92.6443 37.3953 90.9033 37.3953C88.9288 37.3953 87.2834 36.7756 85.967 35.5361C84.6719 34.2967 84.0244 32.6305 84.0244 30.5377C84.0244 27.8556 84.8524 25.5697 86.5084 23.68C88.1645 21.7701 90.1921 20.8151 92.5912 20.8151C94.2685 20.8151 95.6486 21.2011 96.7314 21.9733C98.7696 23.4362 99.4914 26.0066 98.897 29.6843ZM92.4957 22.7352C91.0944 22.7352 89.9055 23.2026 88.9288 24.1372C87.9522 25.0516 87.2728 26.2809 86.8906 27.8251H96.4766C96.6464 26.3012 96.3917 25.0719 95.7122 24.1372C95.0328 23.2026 93.9607 22.7352 92.4957 22.7352Z" fill="black"/>
<path d="M103.949 21.2113L103.44 23.7105H103.504C104.862 21.9225 106.434 21.0284 108.217 21.0284C108.811 21.0284 109.257 21.0894 109.555 21.2113L109.077 23.5581H108.981C108.684 23.4565 108.291 23.4057 107.803 23.4057C106.529 23.4057 105.393 23.8731 104.395 24.8077C103.397 25.7424 102.739 27.0225 102.421 28.648L100.765 36.9686H98.217L101.402 21.2113H103.949Z" fill="black"/>
<path d="M114.042 37.4258C112.109 37.4258 110.485 36.9483 109.169 35.9933C107.853 35.0383 107.194 33.6566 107.194 31.8482H109.647C109.668 33.0064 110.071 33.8903 110.857 34.4999C111.664 35.1094 112.789 35.4142 114.233 35.4142C115.273 35.4142 116.154 35.2009 116.876 34.7742C117.598 34.3271 117.959 33.5957 117.959 32.5797C117.959 31.9905 117.683 31.513 117.131 31.1472C116.6 30.7815 115.613 30.3243 114.169 29.7757C113.32 29.4709 112.661 29.2169 112.194 29.0138C111.749 28.7903 111.26 28.4956 110.729 28.1299C110.199 27.7641 109.816 27.3374 109.583 26.8498C109.349 26.3621 109.233 25.7932 109.233 25.143C109.233 23.802 109.753 22.7555 110.793 22.0037C111.855 21.2519 113.235 20.876 114.933 20.876C116.717 20.876 118.182 21.2824 119.328 22.0952C120.496 22.9079 121.133 24.1474 121.239 25.8135H118.755C118.521 23.7816 117.247 22.7657 114.933 22.7657C112.725 22.7657 111.621 23.5175 111.621 25.0211C111.621 25.6103 111.876 26.0777 112.385 26.4231C112.916 26.7685 113.925 27.2257 115.411 27.7946C116.303 28.1197 116.982 28.4042 117.449 28.648C117.937 28.8715 118.447 29.1661 118.978 29.5319C119.509 29.8976 119.88 30.3243 120.092 30.812C120.326 31.2996 120.443 31.8686 120.443 32.5188C120.443 34.124 119.827 35.3431 118.596 36.1762C117.385 37.0092 115.867 37.4258 114.042 37.4258Z" fill="black"/>
<path d="M131.585 15.6338V18.6816H128.4V15.6338H131.585ZM129.993 21.7294V23.2533H128.4V26.3012H126.808V30.8729H125.216V33.9208H123.623V35.4447H125.216V36.9686H122.031V30.8729H123.623V27.8251H125.216V23.2533H128.4V21.7294H129.993ZM128.4 33.9208V35.4447H126.808V33.9208H128.4Z" fill="black"/>
<path d="M136.069 37.3953C134.052 37.3953 132.386 36.7857 131.069 35.5666C129.774 34.3475 129.127 32.661 129.127 30.5072C129.127 27.8454 129.923 25.5697 131.515 23.68C133.107 21.7701 135.209 20.8151 137.821 20.8151C139.838 20.8151 141.494 21.445 142.789 22.7047C144.084 23.9645 144.732 25.651 144.732 27.7641C144.732 30.4056 143.957 32.6712 142.407 34.5608C140.857 36.4505 138.744 37.3953 136.069 37.3953ZM131.674 30.4767C131.674 31.9194 132.057 33.0979 132.821 34.0122C133.606 34.9062 134.721 35.3533 136.165 35.3533C138.033 35.3533 139.498 34.6218 140.56 33.1588C141.621 31.6959 142.152 29.8976 142.152 27.7641C142.152 26.3418 141.781 25.1633 141.037 24.2287C140.294 23.294 139.201 22.8267 137.757 22.8267C135.846 22.8267 134.35 23.5785 133.267 25.082C132.205 26.5856 131.674 28.3839 131.674 30.4767Z" fill="black"/>
<path d="M149.736 21.2113L149.258 23.6496H149.322C150.023 22.7759 150.904 22.0952 151.965 21.6075C153.027 21.0995 154.163 20.8456 155.373 20.8456C156.986 20.8456 158.133 21.2926 158.812 22.1866C159.492 23.0603 159.683 24.2795 159.386 25.844L157.124 36.9686H154.609L156.87 25.844C157.061 24.8484 156.986 24.1067 156.647 23.6191C156.328 23.1314 155.681 22.8876 154.704 22.8876C153.218 22.8876 151.859 23.4057 150.628 24.442C149.396 25.4783 148.632 26.7076 148.335 28.1299L146.551 36.9686H144.003L147.188 21.2113H149.736Z" fill="black"/>
<path d="M168.259 33.9208V36.9686H165.074V35.4447H166.667V30.8729H168.259V26.3012H169.851V23.2533H171.444V18.6816H173.036V17.1577H171.444V15.6338H176.221V18.6816H174.628V21.7294H173.036V24.7773H171.444V26.3012H173.036V27.8251H171.444V29.349H169.851V33.9208H168.259ZM174.628 24.7773V26.3012H173.036V24.7773H174.628V23.2533H177.813V21.7294H179.406V23.2533H180.998V27.8251H179.406V30.8729H177.813V35.4447H179.406V36.9686H174.628V32.3969H176.221V29.349H177.813V24.7773H174.628ZM180.998 35.4447H179.406V33.9208H180.998V35.4447Z" fill="black"/>
<path d="M196.597 29.6843H184.336C184.314 29.8875 184.304 30.1821 184.304 30.5682C184.304 32.0108 184.697 33.169 185.482 34.0427C186.268 34.9164 187.393 35.3533 188.858 35.3533C189.941 35.3533 190.896 35.0688 191.724 34.4999C192.552 33.9309 193.147 33.1283 193.508 32.0921H195.992C195.355 33.8395 194.399 35.1602 193.125 36.0543C191.852 36.9483 190.344 37.3953 188.603 37.3953C186.629 37.3953 184.983 36.7756 183.667 35.5361C182.372 34.2967 181.724 32.6305 181.724 30.5377C181.724 27.8556 182.552 25.5697 184.208 23.68C185.864 21.7701 187.892 20.8151 190.291 20.8151C191.968 20.8151 193.348 21.2011 194.431 21.9733C196.469 23.4362 197.191 26.0066 196.597 29.6843ZM190.195 22.7352C188.794 22.7352 187.605 23.2026 186.629 24.1372C185.652 25.0516 184.973 26.2809 184.59 27.8251H194.176C194.346 26.3012 194.091 25.0719 193.412 24.1372C192.733 23.2026 191.66 22.7352 190.195 22.7352Z" fill="black"/>
<path d="M201.649 21.2113L201.14 23.7105H201.203C202.562 21.9225 204.133 21.0284 205.917 21.0284C206.511 21.0284 206.957 21.0894 207.254 21.2113L206.777 23.5581H206.681C206.384 23.4565 205.991 23.4057 205.503 23.4057C204.229 23.4057 203.093 23.8731 202.095 24.8077C201.097 25.7424 200.439 27.0225 200.121 28.648L198.465 36.9686H195.917L199.101 21.2113H201.649Z" fill="black"/>
<path d="M219.941 29.6843H207.68C207.659 29.8875 207.648 30.1821 207.648 30.5682C207.648 32.0108 208.041 33.169 208.826 34.0427C209.612 34.9164 210.737 35.3533 212.202 35.3533C213.285 35.3533 214.24 35.0688 215.068 34.4999C215.896 33.9309 216.491 33.1283 216.852 32.0921H219.336C218.699 33.8395 217.743 35.1602 216.47 36.0543C215.196 36.9483 213.688 37.3953 211.947 37.3953C209.973 37.3953 208.327 36.7756 207.011 35.5361C205.716 34.2967 205.068 32.6305 205.068 30.5377C205.068 27.8556 205.896 25.5697 207.552 23.68C209.208 21.7701 211.236 20.8151 213.635 20.8151C215.312 20.8151 216.693 21.2011 217.775 21.9733C219.814 23.4362 220.535 26.0066 219.941 29.6843ZM213.54 22.7352C212.138 22.7352 210.949 23.2026 209.973 24.1372C208.996 25.0516 208.317 26.2809 207.935 27.8251H217.521C217.69 26.3012 217.436 25.0719 216.756 24.1372C216.077 23.2026 215.005 22.7352 213.54 22.7352Z" fill="black"/>
<path d="M225.503 17.1577H227.095V15.6338H230.28V17.1577H228.688V20.2055H227.095V23.2533H225.503V26.3012H223.911V23.2533H225.503V17.1577ZM219.134 33.9208H222.318V36.9686H219.134V33.9208Z" fill="black"/>
</g>
</svg>
